<?xml version="1.0" encoding="UTF-8" standalone="no"?>
<!-- Created with Inkscape (http://www.inkscape.org/) -->

<svg
   width="500"
   height="212"
   viewBox="0 0 132.29167 56.091694"
   version="1.1"
   id="svg5"
   xml:space="preserve"
   inkscape:version="1.2.2 (732a01da63, 2022-12-09)"
   sodipodi:docname="logo-drbola-web1.svg"
   xmlns:inkscape="http://www.inkscape.org/namespaces/inkscape"
   xmlns:sodipodi="http://sodipodi.sourceforge.net/DTD/sodipodi-0.dtd"
   xmlns="http://www.w3.org/2000/svg"
   xmlns:svg="http://www.w3.org/2000/svg"><sodipodi:namedview
     id="namedview7"
     pagecolor="#ffffff"
     bordercolor="#000000"
     borderopacity="0.25"
     inkscape:showpageshadow="false"
     inkscape:pageopacity="0.0"
     inkscape:pagecheckerboard="true"
     inkscape:deskcolor="#d1d1d1"
     inkscape:document-units="mm"
     showgrid="false"
     showborder="true"
     borderlayer="true"
     inkscape:zoom="1.4770342"
     inkscape:cx="228.83695"
     inkscape:cy="144.88493"
     inkscape:window-width="1920"
     inkscape:window-height="1009"
     inkscape:window-x="-8"
     inkscape:window-y="-8"
     inkscape:window-maximized="1"
     inkscape:current-layer="layer1"
     showguides="true"><sodipodi:guide
       position="152.26176,-12.336559"
       orientation="0,-1"
       id="guide470"
       inkscape:locked="false" /></sodipodi:namedview><defs
     id="defs2"><rect
       x="35.426331"
       y="33.511395"
       width="388.25342"
       height="147.45013"
       id="rect294" /><rect
       x="63.192913"
       y="55.054432"
       width="394.47696"
       height="128.30077"
       id="rect236" /></defs><g
     inkscape:label="Vrstva 1"
     inkscape:groupmode="layer"
     id="layer1"><text
       xml:space="preserve"
       transform="matrix(1.350876,0,0,1.350876,-39.811859,-38.188435)"
       id="text292"
       style="font-weight:bold;font-size:14.2254px;font-family:sans-serif;-inkscape-font-specification:'sans-serif, Bold';white-space:pre;shape-inside:url(#rect294);display:inline;fill:#000000;fill-rule:evenodd;stroke-width:0.532913;stroke-opacity:0.992157;paint-order:stroke fill markers"><tspan
         x="35.425781"
         y="46.455057"
         id="tspan363"><tspan
           style="fill:#ffffff"
           id="tspan359">AUTOŠKOLA</tspan><tspan
           style="font-family:Calibri;-inkscape-font-specification:'Calibri Bold'"
           id="tspan361"> 
</tspan></tspan><tspan
         x="35.425781"
         y="64.73292"
         id="tspan367"><tspan
           style="font-family:Calibri;-inkscape-font-specification:'Calibri Bold';fill:#9159f0"
           id="tspan365">DRBOLA</tspan></tspan></text><path
       style="fill:#9159f0;fill-opacity:1;stroke-width:0.070244"
       d="m 81.621244,49.450504 c -1.127471,-0.197116 -2.045861,-0.814966 -2.536944,-1.706738 -0.501891,-0.911395 -0.502569,-1.883769 -0.0019,-2.791874 1.027032,-1.862986 3.705078,-2.311463 5.394253,-0.903346 0.92218,0.768743 1.32215,1.980832 1.01134,3.064881 -0.29916,1.043417 -1.10635,1.83369 -2.232704,2.185904 -0.419062,0.131047 -1.288848,0.211516 -1.633999,0.151173 z m 1.373088,-1.105162 c 0.511702,-0.173932 1.005321,-0.573397 1.267841,-1.02603 0.17203,-0.296598 0.19572,-0.414447 0.19572,-0.973492 0,-0.561489 -0.0234,-0.676253 -0.19882,-0.979063 -0.739762,-1.276254 -2.654553,-1.556299 -3.762008,-0.550209 -0.520598,0.472948 -0.679806,0.830634 -0.680691,1.529272 -6.63e-4,0.499005 0.02623,0.617404 0.218071,0.961377 0.5503,0.986671 1.810717,1.428747 2.959887,1.038145 z m -1.2484,-0.689249 c -0.640876,-0.156287 -1.082756,-0.686538 -1.082756,-1.299295 0,-0.439499 0.09655,-0.658225 0.426863,-0.967075 0.686633,-0.642009 1.808867,-0.523267 2.332959,0.246846 0.717595,1.05444 -0.352151,2.342625 -1.677066,2.019524 z m 0.669588,-1.012786 c 0.326345,-0.207661 0.119107,-0.6992 -0.294791,-0.6992 -0.175908,0 -0.425788,0.23575 -0.425788,0.401713 0,0.165961 0.24988,0.401712 0.425788,0.401712 0.07204,0 0.204704,-0.04691 0.294791,-0.104227 z m 15.001731,2.758404 c -2.007348,-0.465433 -3.146698,-2.387895 -2.441468,-4.119524 0.875658,-2.150093 3.880008,-2.76364 5.650127,-1.153865 1.47924,1.345259 1.32885,3.537458 -0.32208,4.694551 -0.765219,0.536333 -2.001079,0.784155 -2.886579,0.578838 z m 1.62314,-1.049563 c 0.51006,-0.173371 0.986979,-0.554592 1.265679,-1.011728 0.19931,-0.326901 0.21862,-0.41471 0.21862,-0.9946 0,-0.578532 -0.0196,-0.668153 -0.21654,-0.991129 -0.431629,-0.707843 -1.090669,-1.090123 -1.957549,-1.135504 -0.75336,-0.03945 -1.29003,0.143119 -1.81039,0.615845 -1.233218,1.120334 -0.762588,3.014635 0.87683,3.52932 0.51161,0.16062 1.12854,0.155983 1.62335,-0.01222 z m -1.16223,-0.675202 c -0.87689,-0.186861 -1.364,-0.941162 -1.10988,-1.718611 0.2214,-0.677303 1.0353,-1.120243 1.74388,-0.949056 0.75898,0.183361 1.18986,0.664542 1.18919,1.327988 -6.7e-4,0.639937 -0.40746,1.13219 -1.08775,1.316228 -0.1999,0.05407 -0.38229,0.0953 -0.40534,0.09159 -0.0231,-0.0037 -0.17159,-0.03436 -0.3301,-0.06814 z m 0.61984,-1.06332 c 0.0811,-0.07364 0.1474,-0.194159 0.1474,-0.267806 0,-0.07364 -0.0663,-0.194161 -0.1474,-0.267809 -0.0811,-0.07365 -0.21373,-0.133904 -0.29479,-0.133904 -0.0811,0 -0.21371,0.06025 -0.29479,0.133904 -0.0811,0.07364 -0.14739,0.19416 -0.14739,0.267809 0,0.07364 0.0663,0.19416 0.14739,0.267806 0.0811,0.07364 0.21372,0.133906 0.29479,0.133906 0.0811,0 0.21372,-0.06025 0.29479,-0.133906 z m -12.477408,1.063796 c -0.34832,-0.184089 -0.29542,-0.715567 0.0854,-0.858902 0.13887,-0.05226 1.38951,-0.06891 4.201,-0.05595 l 4.00325,0.01845 0.14086,0.158059 c 0.19152,0.214932 0.17693,0.451288 -0.0401,0.648406 l -0.18089,0.164339 -4.03831,-0.0022 c -2.68355,-0.0012 -4.08292,-0.02562 -4.17134,-0.07236 z m 15.974697,-0.08994 c -0.2838,-0.257831 -0.23259,-0.576741 0.11915,-0.741993 0.13221,-0.06211 0.42503,-0.09795 0.80024,-0.09795 1.08577,0 1.44043,-0.249999 1.42469,-1.004281 -0.0157,-0.752073 -0.54989,-2.168244 -1.0004,-2.652084 -0.42981,-0.461605 -1.332,-0.770751 -3.403879,-1.166377 -1.76255,-0.336562 -2.67396,-0.722717 -4.150948,-1.758709 -2.34257,-1.643136 -3.12753,-2.079356 -4.183,-2.324596 -0.67168,-0.156063 -0.8414,-0.271694 -0.8414,-0.573262 0,-0.424478 0.3004,-0.544868 0.99463,-0.398607 1.15176,0.242664 2.17404,0.762459 3.93591,2.001265 1.999358,1.4058 2.685298,1.746812 4.060568,2.018701 2.619099,0.517792 3.258879,0.712784 3.985949,1.214839 0.6918,0.477684 1.2164,1.423377 1.55431,2.801929 0.46225,1.885871 -0.38948,2.845462 -2.52563,2.845462 -0.52743,0 -0.60831,-0.01725 -0.77021,-0.164336 z M 77.469335,47.327801 c -0.340931,-0.187491 -0.746613,-0.637697 -0.862781,-0.957472 -0.13107,-0.360796 -0.113237,-0.840544 0.10914,-2.936924 0.23593,-2.224085 0.355448,-2.716114 0.758134,-3.121041 0.42458,-0.426943 0.755197,-0.548665 1.568001,-0.577281 0.412955,-0.01454 0.811613,-0.06779 0.971929,-0.129811 0.78591,-0.304067 1.207706,0.513669 0.462687,0.897015 -0.240272,0.123638 -0.41037,0.151274 -0.955582,0.155285 -1.421658,0.01048 -1.417256,0.003 -1.733945,2.938795 -0.265854,2.46455 -0.259602,2.550929 0.2071,2.861037 0.371189,0.246646 0.458232,0.352227 0.458232,0.555835 0,0.457769 -0.456726,0.603935 -0.982915,0.314562 z m 11.612988,-3.439603 c -0.21329,-0.03726 -0.40419,-0.36604 -0.3424,-0.589681 0.0812,-0.29373 0.29027,-0.367253 1.04465,-0.367253 0.63123,0 0.70179,0.01336 0.86798,0.164337 0.28381,0.257832 0.23259,0.576742 -0.11915,0.741992 -0.19855,0.09327 -1.03908,0.122591 -1.45107,0.05061 z m -6.760951,-1.727017 c -0.89633,-0.287897 -1.060933,-1.188806 -0.364491,-1.994929 0.288575,-0.334019 0.361903,-0.381734 0.58666,-0.381734 0.302569,0 0.55165,0.193111 0.55165,0.427677 0,0.08792 -0.118534,0.316432 -0.263433,0.507787 -0.144896,0.191358 -0.245428,0.390572 -0.223408,0.442702 0.03339,0.07905 0.437904,0.09478 2.437523,0.09478 h 2.39748 v -1.071236 c 0,-0.981965 0.0125,-1.082392 0.1474,-1.205137 0.082,-0.07439 0.24566,-0.133904 0.36849,-0.133904 0.12278,0 0.2866,0.05952 0.36848,0.133904 0.13511,0.12274 0.14739,0.223172 0.14739,1.205137 v 1.071233 l 3.07689,-0.0019 3.07687,-0.0019 -0.25794,-0.198276 c -0.36381,-0.27966 -2.08784,-1.343011 -2.61627,-1.613671 -0.43968,-0.225205 -0.4488,-0.226678 -1.60965,-0.259965 -1.11643,-0.03201 -1.17361,-0.04038 -1.30813,-0.191535 -0.0773,-0.08693 -0.14067,-0.201895 -0.14067,-0.255473 0,-0.122577 0.14358,-0.374192 0.25055,-0.439081 0.0446,-0.02706 0.6283,-0.04894 1.2971,-0.04862 1.09723,5.36e-4 1.256,0.01551 1.62539,0.153569 0.53432,0.199703 2.3315,1.289359 3.31235,2.008329 1.394858,1.022423 1.588408,1.290278 1.192368,1.65007 l -0.22295,0.20254 -6.767438,-0.003 c -5.63886,-0.0025 -6.816582,-0.01874 -7.062211,-0.09763 z m -0.07371,-2.684689 c -0.756288,-0.06932 -1.651863,-0.24824 -1.915764,-0.382721 -0.436336,-0.222354 -0.572233,-0.465841 -0.920739,-1.649685 l -0.318374,-1.081479 0.147658,-0.18044 c 0.195604,-0.239032 0.621462,-0.283653 0.808917,-0.08475 0.07097,0.07531 0.250469,0.561289 0.398871,1.079962 0.148401,0.51867 0.304248,0.974316 0.346325,1.012541 0.303043,0.275306 2.692425,0.41196 3.928207,0.224665 1.83246,-0.277724 3.57759,-1.024212 4.80448,-2.055137 l 0.4257,-0.357712 -0.30805,-1.058237 -0.30804,-1.058237 0.1476,-0.180376 c 0.18981,-0.231949 0.59704,-0.279919 0.7839,-0.09234 0.0702,0.0704 0.26251,0.576515 0.42749,1.124694 0.33417,1.110322 0.35506,1.558325 0.0879,1.886579 -0.20898,0.256806 -1.06864,0.903804 -1.7191,1.293855 -1.11342,0.667653 -2.63657,1.221041 -3.94281,1.432492 -0.65596,0.106186 -2.303874,0.178616 -2.874214,0.126335 z m -7.025268,-0.918164 c -0.153577,-0.148512 -0.160242,-0.211057 -0.160242,-1.503813 0,-1.301374 0.0056,-1.353661 0.161291,-1.485367 0.205334,-0.173788 0.533351,-0.174972 0.72308,-0.0026 0.137807,0.125195 0.147395,0.223174 0.147395,1.506421 0,1.283248 -0.0096,1.381227 -0.147395,1.506421 -0.198812,0.180614 -0.525404,0.17112 -0.724129,-0.02105 z m 4.930224,-3.158394 c -2.570953,-0.381213 -4.750563,-0.724616 -4.84358,-0.763118 -0.198006,-0.08196 -0.295934,-0.363384 -0.202199,-0.581084 0.03622,-0.08413 0.430662,-0.420104 0.876532,-0.746611 0.445871,-0.326508 1.507115,-1.105689 2.358323,-1.731516 3.461524,-2.544987 4.21956,-3.094497 4.369056,-3.167183 0.125275,-0.06092 0.844852,0.02473 3.605283,0.429104 5.92906,0.868532 6.16507,0.905629 6.2714,0.985799 0.14868,0.112111 0.23293,0.347218 0.18458,0.515172 -0.0239,0.08291 -0.68931,0.619704 -1.56123,1.2594 -0.83583,0.613198 -1.93422,1.419315 -2.4409,1.791369 -0.50666,0.372056 -1.52236,1.117641 -2.25711,1.656854 -0.73474,0.539215 -1.4146,0.994913 -1.5108,1.012659 -0.0962,0.01774 -2.278403,-0.279633 -4.849355,-0.660845 z m 6.171545,-1.470468 c 4.26504,-3.118062 4.61474,-3.378971 4.5738,-3.412509 -0.0153,-0.01247 -1.7806,-0.279477 -3.92305,-0.593349 l -3.895353,-0.570677 -1.374014,1.01093 c -0.755709,0.556009 -1.622746,1.194692 -1.926747,1.419291 -0.304002,0.2246 -1.057339,0.777272 -1.674082,1.228162 -0.616743,0.450889 -1.136201,0.841629 -1.154354,0.868313 -0.01815,0.02668 1.282389,0.240798 2.890091,0.47581 2.500746,0.365558 4.781589,0.710484 4.862359,0.735322 0.0127,0.0039 0.74235,-0.518668 1.62135,-1.161293 z"
       id="path468" /></g></svg>
